HIERARCHY
ROOT Hips
{
	OFFSET 0.000000 83.214638 0.000000
	CHANNELS 6 Xposition Yposition Zposition Xrotation Yrotation Zrotation
	JOINT Pelvis
	{
		OFFSET 0.000000 0.000000 0.000000
		CHANNELS 3 Xrotation Yrotation Zrotation
		JOINT LeftUpLeg
		{
			OFFSET 8.479700 -4.795502 -0.379100
			CHANNELS 3 Xrotation Yrotation Zrotation
			JOINT LeftLeg
			{
				OFFSET 0.024144 -32.555107 0.112900
				CHANNELS 3 Xrotation Yrotation Zrotation
				JOINT LeftFoot
				{
					OFFSET -0.024144 -32.638630 -3.012600
					CHANNELS 3 Xrotation Yrotation Zrotation
					JOINT LeftToeBase
					{
						OFFSET 0.970200 -13.225400 11.864200
						CHANNELS 3 Xrotation Yrotation Zrotation
						End Site
						{
							OFFSET 0.000000 12.319262 0.000000
						}
					}
					JOINT LFootTongue
					{
						OFFSET 1.142400 -1.059800 6.665200
						CHANNELS 3 Xrotation Yrotation Zrotation
						End Site
						{
							OFFSET 0.000000 12.319262 0.000000
						}
					}
				}
				JOINT LeftPantLeg
				{
					OFFSET 0.918482 -16.533964 -2.284700
					CHANNELS 3 Xrotation Yrotation Zrotation
					End Site
					{
						OFFSET 0.350399 24.744368 0.000000
					}
				}
			}
		}
		JOINT RightUpLeg
		{
			OFFSET -8.479700 -4.795502 -0.379100
			CHANNELS 3 Xrotation Yrotation Zrotation
			JOINT RightLeg
			{
				OFFSET -0.023144 -32.555092 0.112900
				CHANNELS 3 Xrotation Yrotation Zrotation
				JOINT RightFoot
				{
					OFFSET 0.023144 -32.638641 -3.012700
					CHANNELS 3 Xrotation Yrotation Zrotation
					JOINT RightToeBase
					{
						OFFSET -0.970200 -13.225400 11.864200
						CHANNELS 3 Xrotation Yrotation Zrotation
						End Site
						{
							OFFSET 0.000000 12.319244 0.000000
						}
					}
					JOINT RFootTongue
					{
						OFFSET -1.142200 -1.059800 6.665200
						CHANNELS 3 Xrotation Yrotation Zrotation
						End Site
						{
							OFFSET 0.000000 12.319243 0.000000
						}
					}
				}
				JOINT RightPantLeg
				{
					OFFSET -0.919482 -16.533978 -2.284800
					CHANNELS 3 Xrotation Yrotation Zrotation
					End Site
					{
						OFFSET -0.350400 24.744419 0.000000
					}
				}
			}
		}
	}
	JOINT Spine
	{
		OFFSET 0.000000 7.722000 1.166200
		CHANNELS 3 Xrotation Yrotation Zrotation
		JOINT Spine1
		{
			OFFSET 0.000000 12.024101 0.248800
			CHANNELS 3 Xrotation Yrotation Zrotation
			JOINT Spine2
			{
				OFFSET 0.000000 11.502998 -0.491200
				CHANNELS 3 Xrotation Yrotation Zrotation
				JOINT Neck
				{
					OFFSET 0.000000 18.430702 -3.123100
					CHANNELS 3 Xrotation Yrotation Zrotation
					JOINT Head
					{
						OFFSET 0.000000 9.051102 1.034000
						CHANNELS 3 Xrotation Yrotation Zrotation
						JOINT HairB
						{
							OFFSET 0.208400 24.786102 24.822300
							CHANNELS 3 Xrotation Yrotation Zrotation
							End Site
							{
								OFFSET 0.000000 32.263779 0.000000
							}
						}
						JOINT HairA
						{
							OFFSET -7.081100 24.428299 23.196600
							CHANNELS 3 Xrotation Yrotation Zrotation
							End Site
							{
								OFFSET 0.000000 32.263779 0.000000
							}
						}
						JOINT Hat
						{
							OFFSET 16.728800 15.048294 -15.439601
							CHANNELS 3 Xrotation Yrotation Zrotation
							End Site
							{
								OFFSET 0.000000 32.263779 0.000000
							}
						}
					}
				}
				JOINT LeftShoulder
				{
					OFFSET 6.197800 13.665199 -4.064700
					CHANNELS 3 Xrotation Yrotation Zrotation
					JOINT LeftArm
					{
						OFFSET 7.778100 -0.187103 -1.709300
						CHANNELS 3 Xrotation Yrotation Zrotation
						JOINT LeftForeArm
						{
							OFFSET 22.049376 0.000000 0.000000
							CHANNELS 3 Xrotation Yrotation Zrotation
							JOINT LeftHand
							{
								OFFSET 23.009392 0.000000 0.000000
								CHANNELS 3 Xrotation Yrotation Zrotation
								JOINT LeftHandThumb1
								{
									OFFSET 3.507191 -2.063065 3.133727
									CHANNELS 3 Xrotation Yrotation Zrotation
									JOINT LeftHandThumb2
									{
										OFFSET 3.101337 -1.790558 1.790558
										CHANNELS 3 Xrotation Yrotation Zrotation
										JOINT LeftHandThumb3
										{
											OFFSET 3.058640 -1.765907 1.765906
											CHANNELS 3 Xrotation Yrotation Zrotation
											End Site
											{
												OFFSET -0.415260 3.926476 -0.049563
											}
										}
									}
								}
								JOINT LeftHandIndex1
								{
									OFFSET 11.334419 -0.901459 3.706815
									CHANNELS 3 Xrotation Yrotation Zrotation
									JOINT LeftHandIndex2
									{
										OFFSET 3.283112 0.000000 0.000000
										CHANNELS 3 Xrotation Yrotation Zrotation
										JOINT LeftHandIndex3
										{
											OFFSET 3.323853 0.000000 0.000000
											CHANNELS 3 Xrotation Yrotation Zrotation
											End Site
											{
												OFFSET -1.135597 3.097809 0.402452
											}
										}
									}
								}
								JOINT LeftHandMiddle1
								{
									OFFSET 11.335861 0.000000 0.000000
									CHANNELS 3 Xrotation Yrotation Zrotation
									JOINT LeftHandMiddle2
									{
										OFFSET 3.410492 0.000000 0.000000
										CHANNELS 3 Xrotation Yrotation Zrotation
										JOINT LeftHandMiddle3
										{
											OFFSET 3.312172 0.000000 0.000000
											CHANNELS 3 Xrotation Yrotation Zrotation
											End Site
											{
												OFFSET -1.150200 3.080154 0.400270
											}
										}
									}
								}
								JOINT LeftHandRing1
								{
									OFFSET 11.514786 -0.013176 -3.003090
									CHANNELS 3 Xrotation Yrotation Zrotation
									JOINT LeftHandRing2
									{
										OFFSET 3.053307 0.000000 0.000000
										CHANNELS 3 Xrotation Yrotation Zrotation
										JOINT LeftHandRing3
										{
											OFFSET 3.295807 0.000000 0.000000
											CHANNELS 3 Xrotation Yrotation Zrotation
											End Site
											{
												OFFSET -1.281006 3.013344 0.375733
											}
										}
									}
								}
								JOINT LeftHandPinky1
								{
									OFFSET 10.518692 -0.960396 -5.730441
									CHANNELS 3 Xrotation Yrotation Zrotation
									JOINT LeftHandPinky2
									{
										OFFSET 2.861649 0.000000 0.000000
										CHANNELS 3 Xrotation Yrotation Zrotation
										JOINT LeftHandPinky3
										{
											OFFSET 2.863380 0.000000 0.000000
											CHANNELS 3 Xrotation Yrotation Zrotation
											End Site
											{
												OFFSET -0.843597 2.711159 0.369971
											}
										}
									}
								}
							}
							JOINT LSleeve
							{
								OFFSET 6.676277 -0.344902 -1.011730
								CHANNELS 3 Xrotation Yrotation Zrotation
								End Site
								{
									OFFSET 0.000000 14.885353 0.000000
								}
							}
						}
					}
				}
				JOINT RightShoulder
				{
					OFFSET -6.197800 13.665199 -4.064700
					CHANNELS 3 Xrotation Yrotation Zrotation
					JOINT RightArm
					{
						OFFSET -7.778100 -0.187103 -1.709300
						CHANNELS 3 Xrotation Yrotation Zrotation
						JOINT RightForeArm
						{
							OFFSET -22.049376 0.000000 0.000000
							CHANNELS 3 Xrotation Yrotation Zrotation
							JOINT RightHand
							{
								OFFSET -23.009392 0.000000 0.000000
								CHANNELS 3 Xrotation Yrotation Zrotation
								JOINT RightHandThumb1
								{
									OFFSET -3.507191 -2.063065 3.133727
									CHANNELS 3 Xrotation Yrotation Zrotation
									JOINT RightHandThumb2
									{
										OFFSET -3.101337 -1.790558 1.790558
										CHANNELS 3 Xrotation Yrotation Zrotation
										JOINT RightHandThumb3
										{
											OFFSET -3.058640 -1.765907 1.765906
											CHANNELS 3 Xrotation Yrotation Zrotation
											End Site
											{
												OFFSET 0.415260 3.926476 -0.049563
											}
										}
									}
								}
								JOINT RightHandIndex1
								{
									OFFSET -11.334419 -0.901459 3.706815
									CHANNELS 3 Xrotation Yrotation Zrotation
									JOINT RightHandIndex2
									{
										OFFSET -3.283112 0.000000 0.000000
										CHANNELS 3 Xrotation Yrotation Zrotation
										JOINT RightHandIndex3
										{
											OFFSET -3.323853 0.000000 0.000000
											CHANNELS 3 Xrotation Yrotation Zrotation
											End Site
											{
												OFFSET 1.135597 3.097809 0.402452
											}
										}
									}
								}
								JOINT RightHandMiddle1
								{
									OFFSET -11.335861 0.000000 0.000000
									CHANNELS 3 Xrotation Yrotation Zrotation
									JOINT RightHandMiddle2
									{
										OFFSET -3.410492 0.000000 0.000000
										CHANNELS 3 Xrotation Yrotation Zrotation
										JOINT RightHandMiddle3
										{
											OFFSET -3.312172 0.000000 0.000000
											CHANNELS 3 Xrotation Yrotation Zrotation
											End Site
											{
												OFFSET 1.150200 3.080154 0.400270
											}
										}
									}
								}
								JOINT RightHandRing1
								{
									OFFSET -11.514786 -0.013176 -3.003090
									CHANNELS 3 Xrotation Yrotation Zrotation
									JOINT RightHandRing2
									{
										OFFSET -3.053307 0.000000 0.000000
										CHANNELS 3 Xrotation Yrotation Zrotation
										JOINT RightHandRing3
										{
											OFFSET -3.295807 0.000000 0.000000
											CHANNELS 3 Xrotation Yrotation Zrotation
											End Site
											{
												OFFSET 1.281006 3.013344 0.375733
											}
										}
									}
								}
								JOINT RightHandPinky1
								{
									OFFSET -10.518692 -0.960396 -5.730441
									CHANNELS 3 Xrotation Yrotation Zrotation
									JOINT RightHandPinky2
									{
										OFFSET -2.861649 0.000000 0.000000
										CHANNELS 3 Xrotation Yrotation Zrotation
										JOINT RightHandPinky3
										{
											OFFSET -2.863380 0.000000 0.000000
											CHANNELS 3 Xrotation Yrotation Zrotation
											End Site
											{
												OFFSET 0.843597 2.711159 0.369971
											}
										}
									}
								}
							}
							JOINT RSleeve
							{
								OFFSET -6.676277 -0.344902 -1.011730
								CHANNELS 3 Xrotation Yrotation Zrotation
								End Site
								{
									OFFSET 0.000000 14.885353 0.000000
								}
							}
						}
					}
				}
				JOINT Backpack
				{
					OFFSET 0.000000 -2.471497 36.677502
					CHANNELS 3 Xrotation Yrotation Zrotation
					End Site
					{
						OFFSET 0.000000 20.427315 0.000000
					}
				}
				JOINT Hood
				{
					OFFSET 0.000000 18.754097 -10.431000
					CHANNELS 3 Xrotation Yrotation Zrotation
					JOINT Hood1
					{
						OFFSET 0.000000 -5.011002 -7.685901
						CHANNELS 3 Xrotation Yrotation Zrotation
						End Site
						{
							OFFSET 0.000000 9.175140 0.000000
						}
					}
				}
				JOINT LHoodieString
				{
					OFFSET 5.250500 16.397697 3.089900
					CHANNELS 3 Xrotation Yrotation Zrotation
					JOINT LHoodieString1
					{
						OFFSET 0.257700 -6.364304 3.694600
						CHANNELS 3 Xrotation Yrotation Zrotation
						JOINT LHoodieString2
						{
							OFFSET 0.000000 -9.643799 2.679100
							CHANNELS 3 Xrotation Yrotation Zrotation
							End Site
							{
								OFFSET 0.000000 10.009018 0.000000
							}
						}
					}
				}
				JOINT RHoodieString
				{
					OFFSET -5.250500 16.397697 3.089900
					CHANNELS 3 Xrotation Yrotation Zrotation
					JOINT RHoodieString1
					{
						OFFSET -0.257700 -6.364304 3.694600
						CHANNELS 3 Xrotation Yrotation Zrotation
						JOINT RHoodieString2
						{
							OFFSET 0.000000 -9.643799 2.679100
							CHANNELS 3 Xrotation Yrotation Zrotation
							End Site
							{
								OFFSET 0.000000 10.009018 0.000000
							}
						}
					}
				}
			}
			JOINT LBackpack_Strap
			{
				OFFSET 15.223200 -7.719803 -6.610900
				CHANNELS 3 Xrotation Yrotation Zrotation
				End Site
				{
					OFFSET 0.000000 16.040596 0.000000
				}
			}
			JOINT RBackpack_Strap
			{
				OFFSET -15.223000 -7.719803 -6.610900
				CHANNELS 3 Xrotation Yrotation Zrotation
				End Site
				{
					OFFSET 0.000000 16.040596 0.000000
				}
			}
		}
	}
	JOINT BoyFacialAnim_Joint
	{
		OFFSET 1.000000 -82.208099 -1.550900
		CHANNELS 3 Xrotation Yrotation Zrotation
		End Site
		{
			OFFSET 0.000000 30.012791 0.000000
		}
	}
}
MOTION
Frames: 4
Frame Time: 0.033333
-0.088156 33.892014 -2.182175 -22.044950 -8.512376 6.839187 0.000001 0.000000 -0.000000 -87.876422 4.658724 16.287025 75.753724 -1.263657 -2.553251 33.263561 4.828797 -1.564856 -0.000000 0.000001 0.000000 -0.000000 0.000001 -0.000000 0.000002 -0.000000 0.000000 -91.214697 7.033111 -5.178594 74.599920 0.522777 2.495228 37.732076 -4.562361 -7.185148 0.000000 0.000002 -0.000000 0.000000 0.000002 -0.000000 -0.000002 -0.000000 -0.000000 7.402836 0.086171 -2.604969 14.811340 0.283364 -5.043457 14.811339 0.283365 -5.043458 -6.599889 -1.512855 -1.263942 -2.283114 -10.757855 10.707259 -0.000000 -0.000000 -0.000000 -0.000000 -0.000000 -0.000000 -0.000000 -0.000000 -0.000000 1.725615 5.143159 -16.757987 -5.695941 -4.148228 -49.073454 0.001892 -95.075680 0.023550 64.325007 2.294917 39.610033 13.427473 -24.202418 -39.499322 16.279585 36.624755 -10.253906 -0.000001 -0.000000 0.000000 16.640301 -0.509296 -90.473020 0.433012 0.768571 -51.911330 0.000000 0.000000 -0.000004 10.344881 -4.162164 -87.783463 -2.081620 -3.885335 -56.104420 0.000000 -0.000001 -0.000002 8.350875 -2.824365 -86.713473 -2.031951 -3.964106 -54.461500 -0.000001 -0.000000 -0.000000 1.092604 -1.035564 -71.815928 -4.490327 -6.299260 -70.808236 -0.000000 0.000000 0.000001 -0.000001 -0.000000 0.000000 1.268019 -1.321009 17.877312 7.001975 13.170223 33.814870 -0.455975 94.033420 0.426500 54.883005 -0.098408 -47.270247 -9.985359 -27.006860 45.705068 20.446960 -37.158620 6.666878 -0.000001 -0.000003 0.000001 0.575888 -6.900230 82.629047 0.993017 -1.794226 54.801579 0.000000 0.000000 0.000002 -8.686663 0.808341 73.200995 -2.997649 3.501151 80.945501 0.000002 0.000001 -0.000004 -7.338733 1.274186 73.005194 -3.684379 5.584442 64.778286 0.000001 0.000001 0.000002 -5.069199 6.749365 66.147630 -3.897782 7.862113 52.718364 -0.000001 -0.000000 0.000000 0.000000 -0.000000 0.000001 -0.000001 0.000000 -0.000000 -0.000001 0.000000 -0.000000 -0.000001 0.000000 -0.000000 -0.000001 0.000000 -0.000000 -0.000001 0.000000 -0.000000 -0.000001 0.000000 -0.000000 -0.000001 0.000000 -0.000000 -0.000001 0.000000 -0.000000 -0.000001 0.000000 -0.000000 0.000000 0.000000 0.000000 0.000000 0.000000 0.000000 0.000001 0.000000 -0.000000 
-0.071727 33.912720 -2.225113 -22.051838 -8.438692 6.728886 0.000000 0.000001 -0.000000 -87.887309 4.675667 16.222674 75.724327 -1.255934 -2.551915 33.125635 4.874784 -1.211377 -0.000000 0.000000 0.000000 -0.000000 0.000000 -0.000000 0.000003 0.000001 0.000000 -91.085197 6.908313 -5.371703 74.469293 0.512354 2.492601 37.738199 -4.486424 -6.960234 -0.000000 0.000000 0.000000 -0.000000 0.000000 0.000000 0.000001 0.000000 -0.000000 7.341517 0.115268 -2.558979 14.689787 0.338564 -4.959128 14.689783 0.338562 -4.959126 -5.775732 -1.546897 -1.322392 -3.538820 -11.231647 10.527774 0.000000 0.000001 -0.000000 0.000000 0.000001 -0.000000 0.000000 0.000001 -0.000000 1.605710 5.049565 -15.330583 -4.546468 -4.761891 -50.483038 -0.179148 -94.064710 -0.154746 63.539631 3.980066 42.540399 16.595668 -21.449459 -36.809802 16.221877 36.553868 -10.205869 0.000001 0.000001 -0.000001 20.347192 -2.369192 -92.062303 0.462363 0.786545 -53.985409 -0.000000 0.000000 -0.000002 10.062060 -3.778803 -90.420285 -2.264610 -4.002070 -58.764940 0.000001 -0.000001 0.000002 10.897849 -3.868143 -89.340281 -2.100271 -4.011855 -55.443709 -0.000000 0.000000 -0.000002 1.451967 -0.523203 -66.693341 -4.994974 -6.447748 -75.342266 0.000002 0.000003 -0.000001 -0.000001 -0.000000 0.000001 1.256522 -1.537446 16.925786 7.401415 13.835121 35.142037 -0.556324 93.043330 0.525214 55.390870 -1.004447 -49.711951 -9.622381 -29.425657 44.519306 19.909547 -36.521619 6.366793 -0.000001 0.000003 -0.000001 2.473260 -6.996211 83.800991 1.041981 -1.824829 56.324813 -0.000001 0.000001 0.000002 -7.562574 0.526809 72.606325 -3.034120 3.506795 81.542371 0.000002 0.000001 0.000003 -7.626844 1.233965 72.592815 -3.704101 5.593665 64.980883 -0.000000 0.000000 0.000000 -3.321130 6.189779 62.871925 -4.012903 7.946713 53.554014 -0.000001 -0.000001 0.000003 -0.000000 0.000000 -0.000002 0.000002 -0.000000 -0.000000 0.000002 -0.000000 -0.000000 0.000002 -0.000000 -0.000000 0.000002 -0.000000 -0.000000 0.000002 -0.000000 -0.000000 0.000001 -0.000000 0.000000 0.000002 -0.000000 -0.000000 0.000002 -0.000000 -0.000000 0.000001 -0.000000 0.000000 0.000000 -0.000000 0.000000 0.000000 -0.000000 0.000000 0.000000 0.000001 -0.000000 
-0.019334 34.234970 -2.346889 -22.072660 -8.439088 6.603806 0.000002 0.000001 -0.000000 -87.422269 4.847648 16.059037 75.396191 -1.228203 -2.541963 32.597672 4.995137 -0.572652 -0.000000 -0.000000 -0.000000 -0.000000 -0.000000 -0.000000 -0.000001 0.000000 -0.000000 -90.423741 6.700185 -5.600547 73.875196 0.478075 2.478855 37.686873 -4.362066 -6.872991 -0.000000 -0.000002 0.000000 -0.000000 -0.000002 0.000000 -0.000001 0.000001 0.000000 7.091969 0.221148 -2.450786 14.194726 0.554322 -4.758871 14.194727 0.554323 -4.758871 -6.287365 -1.646422 -1.673873 -7.077299 -12.453510 10.454828 0.000000 -0.000000 0.000000 0.000000 -0.000000 0.000000 0.000000 -0.000000 0.000000 1.351096 4.841201 -12.189944 -1.612571 -6.903525 -52.291676 19.037479 -90.746979 19.236241 61.612350 6.497729 49.083413 16.080051 -22.084546 -35.767307 16.394988 36.765925 -10.350014 0.000000 -0.000001 -0.000001 18.859921 0.836503 -86.145959 0.517575 0.816622 -57.774193 -0.000002 0.000000 -0.000002 8.013040 -1.441971 -85.379728 -2.540553 -4.156624 -62.642042 0.000001 -0.000001 0.000000 9.823126 -2.657332 -85.534527 -2.251420 -4.111524 -57.577470 0.000000 0.000000 -0.000002 1.151097 -0.195643 -59.506760 -5.718601 -6.588199 -81.697559 0.000000 0.000001 -0.000000 0.000002 0.000001 -0.000001 1.190440 -1.981172 14.320737 9.456113 15.940963 36.996696 -5.042263 90.272131 5.004532 55.368946 -2.898779 -54.306657 -8.748724 -30.738758 45.565852 20.635490 -37.379153 6.772707 -0.000002 0.000000 0.000000 2.716890 -7.395964 81.097739 1.071504 -1.842423 57.231726 -0.000001 0.000000 0.000002 -7.162408 0.501504 71.184539 -3.058456 3.510306 81.939963 0.000001 0.000000 -0.000000 -7.682778 1.274283 71.182326 -3.767806 5.622800 65.632688 -0.000003 -0.000001 0.000002 -1.994618 5.661839 59.719848 -4.107617 8.014397 54.235151 -0.000002 -0.000001 0.000000 0.000003 -0.000001 -0.000000 0.000000 -0.000000 -0.000000 0.000000 -0.000000 -0.000000 0.000000 -0.000000 -0.000000 0.000000 -0.000000 -0.000000 0.000000 -0.000000 -0.000000 0.000000 -0.000000 0.000000 0.000000 -0.000000 -0.000000 0.000000 -0.000000 -0.000000 0.000000 -0.000000 0.000000 0.000000 0.000000 -0.000000 0.000000 0.000000 -0.000000 0.000002 0.000001 -0.000000 
0.057695 35.022141 -2.505960 -22.115085 -8.710083 6.717324 0.000000 -0.000000 -0.000001 -86.084310 5.244877 15.744308 74.586137 -1.186561 -2.519282 31.704492 5.202679 -0.144787 0.000000 -0.000000 -0.000000 0.000000 -0.000000 -0.000000 -0.000001 0.000000 -0.000000 -89.059048 6.830079 -5.549817 72.757777 0.428142 2.451037 37.503920 -4.217459 -6.781127 -0.000000 0.000000 0.000000 -0.000000 0.000000 0.000000 -0.000000 0.000001 0.000001 6.547516 0.389163 -2.367205 13.112325 0.917400 -4.597891 13.112326 0.917404 -4.597891 -10.066590 -1.690042 -2.601457 -12.025281 -13.995924 10.786288 -0.000001 -0.000002 -0.000000 -0.000001 -0.000002 -0.000000 -0.000001 -0.000002 -0.000000 1.042697 4.676025 -8.075957 2.591594 -11.205341 -53.654527 -6.453445 -85.226383 -6.103662 58.447001 9.315725 54.354642 17.121766 -22.350408 -27.102114 15.754122 35.970146 -9.816269 -0.000001 0.000002 0.000001 8.729676 5.669569 -73.784143 0.545851 0.830229 -59.664831 -0.000001 0.000001 -0.000003 2.771810 0.249662 -76.349938 -2.780163 -4.271894 -65.902043 0.000001 -0.000000 -0.000001 3.355440 -0.777861 -76.116905 -2.435264 -4.222295 -60.107174 0.000000 -0.000001 -0.000001 0.201811 -0.767643 -59.941733 -6.423010 -6.647283 -87.791884 -0.000001 0.000000 0.000003 0.000001 0.000001 0.000002 1.060249 -2.416984 10.868494 13.324647 19.770691 37.994345 0.192391 85.566226 -0.238018 53.768216 -5.022745 -59.031652 -10.044445 -28.564317 44.155780 19.763772 -36.346715 6.285773 -0.000002 0.000001 0.000001 0.300216 -7.503634 76.103047 1.085656 -1.850629 57.662759 -0.000000 -0.000001 -0.000000 -8.572824 1.373619 67.105789 -3.081216 3.513466 82.311559 -0.000002 0.000001 -0.000004 -8.223753 1.381115 67.322217 -3.870170 5.667828 66.673131 0.000000 0.000001 0.000000 -1.123646 5.363520 54.662079 -4.282298 8.134851 55.476480 -0.000000 -0.000002 -0.000004 0.000002 0.000001 -0.000003 -0.000001 0.000000 -0.000000 -0.000001 0.000000 -0.000000 -0.000001 0.000000 -0.000000 -0.000001 0.000000 -0.000000 -0.000001 0.000000 0.000000 -0.000002 0.000000 0.000000 -0.000001 0.000000 -0.000000 -0.000001 0.000000 0.000000 -0.000002 0.000000 0.000000 -0.000000 -0.000001 0.000000 -0.000000 -0.000001 0.000000 0.000000 -0.000000 -0.000001 
